<mxfile host="app.diagrams.net" modified="2024-04-30T20:38:15.915Z" agent="Mozilla/5.0 (Macintosh; Intel Mac OS X 10_15_7) AppleWebKit/537.36 (KHTML, like Gecko) Chrome/123.0.0.0 Safari/537.36" etag="LzNO2RrfcHolHgDUXJxz" version="24.2.1" type="github">
  <diagram name="Page-1" id="jI6ILdCO9SPQCNDPbAJi">
    <mxGraphModel dx="844" dy="488" grid="1" gridSize="10" guides="1" tooltips="1" connect="1" arrows="1" fold="1" page="1" pageScale="1" pageWidth="850" pageHeight="1100" math="0" shadow="0">
      <root>
        <mxCell id="0" />
        <mxCell id="1" parent="0" />
        <mxCell id="MZ9DUVWzmKiCUT2zZOyj-2" value="P1" style="points=[[0,0],[0.25,0],[0.5,0],[0.75,0],[1,0],[1,0.25],[1,0.5],[1,0.75],[1,1],[0.75,1],[0.5,1],[0.25,1],[0,1],[0,0.75],[0,0.5],[0,0.25]];outlineConnect=0;gradientColor=none;html=1;whiteSpace=wrap;fontSize=12;fontStyle=0;container=1;pointerEvents=0;collapsible=0;recursiveResize=0;shape=mxgraph.aws4.group;grIcon=mxgraph.aws4.group_aws_cloud_alt;strokeColor=#232F3E;fillColor=none;verticalAlign=top;align=left;spacingLeft=30;fontColor=#232F3E;dashed=0;" vertex="1" parent="1">
          <mxGeometry x="40" y="180" width="530" height="440" as="geometry" />
        </mxCell>
        <mxCell id="MZ9DUVWzmKiCUT2zZOyj-5" value="" style="fillColor=none;strokeColor=#147EBA;dashed=1;verticalAlign=top;fontStyle=0;fontColor=#147EBA;whiteSpace=wrap;html=1;" vertex="1" parent="MZ9DUVWzmKiCUT2zZOyj-2">
          <mxGeometry x="20" y="30" width="490" height="390" as="geometry" />
        </mxCell>
        <mxCell id="MZ9DUVWzmKiCUT2zZOyj-3" value="Vault" style="shape=image;verticalLabelPosition=bottom;verticalAlign=top;imageAspect=0;aspect=fixed;image=data:image/png,iVBORw0KGgoAAAANSUhEUgAAAIAAAACACAYAAADDPmHLAAAAAXNSR0IArs4c6QAACRlJREFUeAHtXWePFWUUXhTBgjExGo2JfjBREViaSlPD4ib2FjWxJIINe+/6QS76B0yMX/xkooLYUYoVCSL2BgiC4tpFJBp7TAR8nnWGjHdn3mlvnXtOcnZm5y3nnOc955k7c8sM6urqehnaCxXpLATWI9wRO+DPPZ0Vt0QbIdDCdsug6J9XsD0m2pdN8xFYhxBHQLeSASjCAv/h0Cl/Wwh0K4ONGYD7S6DTuCPSaAQ+QXQjof0JEDMAIxYWIArNlxZC7F98hppkAP7/KrSHOyKNRGAtohoF3Z4ASQZgxMICRKG50kJo2xefYbYzAI8thU7ljkijEBhQ/YyunQF4rMU/Io1DoIWI/lf9jDCNAXj8NehR3BFpBAJrEEU3dEACpDEAI76Lf0Qag0ALkQxYfEaXxQBsWw49kjsiQSPwMbwfDU1NgCwGYMTCAkQhfGkhhNTFZ2gqBmD769Ap3BEJEoHV8JrVvy3LexUDcIywQBZyYRxvwc3MxWcIeQzAPiugk7kjEhQCudXPaPIYgH2EBYhCeDILLiurnyEVYQD2ewM6iTsiQSCwCl6OgeYmQBEGYMTCAkQhHClU/QynKAOw75vQidwR8RqBlfBuLDS3+hlFUQZgX2EBouC/FK5+hlKGAdj/LegE7oh4icBH8GoctFD1V4nguGhyGhD1D4PTqixq2TFvy+J7mfwfYl3KMnr5ATByPHQx1BfZBEceUDgzE237RO2/YHufou90tB0Qtf+M7f2KvjPQtr+i3XbT6TA435bRd2DIl1MAz3sqYWXEvvapOqJtWaLvhpy+fLc0ntf19gP4Urr6GV+ZqwD2j6WpVwSVQIxBcbidBdtMwtJSNQF4Cni3tDUZYAIBVv+zVSeumgC0x6xrmoTIALXWoU4CLMLqv9ewDAgtAd4H/s/VWYM6CUC7tbKvjuOGxoaWALXxH1wTyIUYzywcX3OeOsMZw96KCZIxcoGHKvomC4Lj4kvCtCGqedL66z5G9l2ge9Iq852MQdtErWNwUpXFMjWGLCBJYA8D767ATpEEsFoAJ+qqZF0vejgPz0l8J8q2bIbBOQqj56Ftr6j9V2wfjPbTNmfh4H5Rw2/Y8konS3rREM+b1cfEcd6F9fId2VPhmIvTgKlbwfwhBZUsR6OLeE9QOVW2Lfmqt+zY9v68Hs1bjPYxvv2vixFNxcXq1/pGnM4EYDXMMhW5g3l9TAbt78HoTACuEe9Jh8wCyUVP7jvIvwEm+TmM5wccrXlAdwKQBVo1fXI5PLnoyX2XPsW2jbCr7gSgs/OhK2OvA9v6tugxfPwspvbq5+QmEsA2CzCGYQqtGqNPyWCk+pkApoLkvHwt0E0jngkTNEva8fg7qyOOD4G291d0r9zE72ME+d3MM+A4wRath8GxlVPH8UBWxypJgFoFwO9kGhXTFHYmvH/CaARdXT9h/mcUNvhp2T2j9t+xfUzRl/fY943a/8J2rqJvD9oOVLTraGL1v6RjIldzMMFWQ02eBvLuO1T9VPDGHNCYHCbjWpFjX0tz1VfIRY0ToFbRzh70M82IZULUftcvzbjpBKDNJ6H8pSqR4giw+vkkF+NiIwHIArONR6LHgC8MYKX6CZmNBKAdssAa7nguPiQAf5mNT3CxIrYSYCuiCYEFfEgAa9XPDLOVALTFy8G13DEgO2LOLDVgrn9KE8nCD5ksMeWwD/OeDSdMXjrlzU0m+kOhWxL+sS8/bsZvCfPjYX9CeWs42SfPXtn2aZi/0ULGIQuUBaYT+i9r9MongjtHEiC1AJxUv4nzWGKtU3fJArwvMDy11exB0vgihYketLn4pC+rf6rCr8Y1nYuIXNB6Xw6SXAgXfvXk+GWsmdXoQubB6DoXhnNsumDEpfCJ6kRcJQBfYd/tJGL/jM72zyU7HvG6nSxgk3LzTgG2v+zh/JrfFQMwxXg97RsL2D4FdGz1MwEoZIH1UFsskMcAfBfOli/Oqx+xWr0VTHvt4iMLtPto6v+WqYnLzGub8tJ8Iwvw7uBBaY2aj/HFJ2/tZskeaBic1ajxOKu/V+N8wU91PiKwRb0+2Dk6+BXTHABZ4NMOSQIrn/TRvD5WppveIQkgj+TNSCeeez9reBIE/RHvjHXTenhGwxNAHsWbky5kgQ0NTYIXc2KX5giBC7D14ZW6bh+k+gumeBNZ4IWCsUu3CIELsdVdgS7nmyIrWw4BssDnDUkCI7/sUQ7OMHtf1JAEmBwm/O693gku9AWeBIvdwxi2BxcHngCTwobfvfchs4BUv6b8uSRQFpioKf6On4Ys8AXU5WVcWduq7x50/IJWAWBmYAkwoUqQMiYbAbLAl9Cyleii/8LsMKSlDgKXBpIAUv11VlkxdgjafGeBBQr/pUkDApdhDhe0XtTmERpilCkUCJAFvoIWXRCb/fjEFBELCFwOGzYXtqitwy3ELiaAAFnga2jRhbHRj09KEbGIwBWwZWNhi9o4zGLsYgoIDIX6wgJ8QoqIAwSuhM2iFWqy33gHsYtJIEAW+AZqcnHz5lb9TL0skgUErnKcAOMsxCgmFAiQBb6F5lWqiXapfsXC2Gy62kEC8GvmUv02V1lha2e02WaBpxX+SJMDBK6BTRM0nzYnq3+sgxjFpAIBssB30LQF033sKYUf0uQQgWstJACrf4zDGMW0AgEbLMAnn4h4jMB18E035cfzsfpHexy7uAYEdoF+D40XTefW9AMwZQE1IXC9gQRg9Xdr8k+mMYwAWWAjVGf1P27YZ5leMwI3aEwAqX7Ni2NjOp0soHrYtI1YxEZFBG7EuLqnAVb/qIr2ZZhjBHaF/R+gdZJgnuMYxHxNBG6qkQCs/pE17ctwxwjUYQGpfseLp8v8zZio7GmAzzEYocsBmcctArvB/CZomSR41K3LYl03AreUSACpft3oezBfGRaY64G/4oIBBG7FnHmnAVb/oQZsy5QeIEAW+BGqSoI5HvgpLhhE4DZFArD6hxu0LVN7gMAw+JDFAo944J+4YAGB22Gj/TQg1W8BeF9MkAU2tyXBw744J37YQeCORAL8g/1D7JgVK74gsDsciVngIV+cEj/sInAnzLH6D7ZrVqz5ggBZ4F5fnBE/3CDgw8Oz3UQeWf0XizdmlqzKA30AAAAASUVORK5CYII=" vertex="1" parent="MZ9DUVWzmKiCUT2zZOyj-2">
          <mxGeometry x="20" y="30" width="84" height="84" as="geometry" />
        </mxCell>
      </root>
    </mxGraphModel>
  </diagram>
</mxfile>
